<mxfile host="app.diagrams.net" modified="2020-07-20T17:57:31.976Z" agent="5.0 (Windows NT 10.0; Win64; x64) AppleWebKit/537.36 (KHTML, like Gecko) Chrome/84.0.4147.89 Safari/537.36" etag="Yo1H9q2dB7Ln6ynjsxFY" version="13.4.9" type="github">
  <diagram id="JurtI7rSHXeyfTPvLvUh" name="Page-1">
    <mxGraphModel dx="1422" dy="794" grid="1" gridSize="10" guides="1" tooltips="1" connect="1" arrows="1" fold="1" page="1" pageScale="1" pageWidth="850" pageHeight="1100" math="0" shadow="0">
      <root>
        <mxCell id="0" />
        <mxCell id="1" parent="0" />
        <mxCell id="GOEzXW9mrkfehJml5P1z-1" value="Calculate the effective_end date using the current date" style="rounded=0;whiteSpace=wrap;html=1;fillColor=#d5e8d4;strokeColor=#82b366;" vertex="1" parent="1">
          <mxGeometry x="365" y="430" width="120" height="60" as="geometry" />
        </mxCell>
        <mxCell id="GOEzXW9mrkfehJml5P1z-7" style="edgeStyle=orthogonalEdgeStyle;rounded=0;orthogonalLoop=1;jettySize=auto;html=1;exitX=0.5;exitY=1;exitDx=0;exitDy=0;entryX=0.5;entryY=0;entryDx=0;entryDy=0;" edge="1" parent="1" source="GOEzXW9mrkfehJml5P1z-3" target="GOEzXW9mrkfehJml5P1z-6">
          <mxGeometry relative="1" as="geometry" />
        </mxCell>
        <mxCell id="GOEzXW9mrkfehJml5P1z-3" value="" style="rhombus;whiteSpace=wrap;html=1;fillColor=#f8cecc;strokeColor=#b85450;" vertex="1" parent="1">
          <mxGeometry x="330" y="160" width="30" height="30" as="geometry" />
        </mxCell>
        <mxCell id="GOEzXW9mrkfehJml5P1z-5" value="sp_m_tbl_sla_season_date" style="rounded=0;whiteSpace=wrap;html=1;fillColor=#f8cecc;strokeColor=#b85450;" vertex="1" parent="1">
          <mxGeometry x="364" y="162.5" width="180" height="25" as="geometry" />
        </mxCell>
        <mxCell id="GOEzXW9mrkfehJml5P1z-10" style="edgeStyle=orthogonalEdgeStyle;rounded=0;orthogonalLoop=1;jettySize=auto;html=1;exitX=0.25;exitY=1;exitDx=0;exitDy=0;" edge="1" parent="1" source="GOEzXW9mrkfehJml5P1z-6" target="GOEzXW9mrkfehJml5P1z-8">
          <mxGeometry relative="1" as="geometry" />
        </mxCell>
        <mxCell id="GOEzXW9mrkfehJml5P1z-11" style="edgeStyle=orthogonalEdgeStyle;rounded=0;orthogonalLoop=1;jettySize=auto;html=1;exitX=0.75;exitY=1;exitDx=0;exitDy=0;entryX=0.5;entryY=0;entryDx=0;entryDy=0;" edge="1" parent="1" source="GOEzXW9mrkfehJml5P1z-6" target="GOEzXW9mrkfehJml5P1z-9">
          <mxGeometry relative="1" as="geometry" />
        </mxCell>
        <mxCell id="GOEzXW9mrkfehJml5P1z-6" value="Does the season have a effective_end date?" style="rounded=0;whiteSpace=wrap;html=1;fillColor=#dae8fc;strokeColor=#6c8ebf;" vertex="1" parent="1">
          <mxGeometry x="285" y="250" width="120" height="60" as="geometry" />
        </mxCell>
        <mxCell id="GOEzXW9mrkfehJml5P1z-14" style="edgeStyle=orthogonalEdgeStyle;rounded=0;orthogonalLoop=1;jettySize=auto;html=1;exitX=0.5;exitY=1;exitDx=0;exitDy=0;entryX=0.5;entryY=0;entryDx=0;entryDy=0;" edge="1" parent="1" source="GOEzXW9mrkfehJml5P1z-8" target="GOEzXW9mrkfehJml5P1z-12">
          <mxGeometry relative="1" as="geometry" />
        </mxCell>
        <mxCell id="GOEzXW9mrkfehJml5P1z-8" value="Yes" style="rounded=0;whiteSpace=wrap;html=1;fillColor=#dae8fc;strokeColor=#6c8ebf;" vertex="1" parent="1">
          <mxGeometry x="245" y="360" width="40" height="30" as="geometry" />
        </mxCell>
        <mxCell id="GOEzXW9mrkfehJml5P1z-13" style="edgeStyle=orthogonalEdgeStyle;rounded=0;orthogonalLoop=1;jettySize=auto;html=1;exitX=0.5;exitY=1;exitDx=0;exitDy=0;entryX=0.5;entryY=0;entryDx=0;entryDy=0;" edge="1" parent="1" source="GOEzXW9mrkfehJml5P1z-9" target="GOEzXW9mrkfehJml5P1z-1">
          <mxGeometry relative="1" as="geometry" />
        </mxCell>
        <mxCell id="GOEzXW9mrkfehJml5P1z-9" value="No" style="rounded=0;whiteSpace=wrap;html=1;fillColor=#dae8fc;strokeColor=#6c8ebf;" vertex="1" parent="1">
          <mxGeometry x="405" y="360" width="40" height="30" as="geometry" />
        </mxCell>
        <mxCell id="GOEzXW9mrkfehJml5P1z-12" value="Use the effective_end date" style="rounded=0;whiteSpace=wrap;html=1;fillColor=#d5e8d4;strokeColor=#82b366;" vertex="1" parent="1">
          <mxGeometry x="205" y="430" width="120" height="60" as="geometry" />
        </mxCell>
        <mxCell id="GOEzXW9mrkfehJml5P1z-15" value="This stored procedure is scheduled to run daily." style="rounded=0;whiteSpace=wrap;html=1;" vertex="1" parent="1">
          <mxGeometry x="195" y="145" width="120" height="60" as="geometry" />
        </mxCell>
        <mxCell id="GOEzXW9mrkfehJml5P1z-29" style="edgeStyle=orthogonalEdgeStyle;rounded=0;orthogonalLoop=1;jettySize=auto;html=1;exitX=0.5;exitY=1;exitDx=0;exitDy=0;entryX=1;entryY=0.5;entryDx=0;entryDy=0;" edge="1" parent="1" source="GOEzXW9mrkfehJml5P1z-16" target="GOEzXW9mrkfehJml5P1z-28">
          <mxGeometry relative="1" as="geometry" />
        </mxCell>
        <mxCell id="GOEzXW9mrkfehJml5P1z-30" style="edgeStyle=orthogonalEdgeStyle;rounded=0;orthogonalLoop=1;jettySize=auto;html=1;exitX=0.5;exitY=1;exitDx=0;exitDy=0;entryX=0;entryY=0.5;entryDx=0;entryDy=0;" edge="1" parent="1" source="GOEzXW9mrkfehJml5P1z-16" target="GOEzXW9mrkfehJml5P1z-27">
          <mxGeometry relative="1" as="geometry" />
        </mxCell>
        <mxCell id="GOEzXW9mrkfehJml5P1z-16" value="Is the effective_end date need to be updated?" style="rounded=0;whiteSpace=wrap;html=1;fillColor=#dae8fc;strokeColor=#6c8ebf;" vertex="1" parent="1">
          <mxGeometry x="107.5" y="880" width="120" height="60" as="geometry" />
        </mxCell>
        <mxCell id="GOEzXW9mrkfehJml5P1z-17" value="&lt;b&gt;Insert:&lt;/b&gt;&lt;br&gt;Record into tbl_ref_sla_season_date" style="rounded=0;whiteSpace=wrap;html=1;fillColor=#d5e8d4;strokeColor=#82b366;" vertex="1" parent="1">
          <mxGeometry x="424" y="635" width="146" height="60" as="geometry" />
        </mxCell>
        <mxCell id="GOEzXW9mrkfehJml5P1z-18" value="Use the effective_end date" style="rounded=0;whiteSpace=wrap;html=1;fillColor=#d5e8d4;strokeColor=#82b366;" vertex="1" parent="1">
          <mxGeometry x="590" y="700" width="120" height="60" as="geometry" />
        </mxCell>
        <mxCell id="GOEzXW9mrkfehJml5P1z-23" style="edgeStyle=orthogonalEdgeStyle;rounded=0;orthogonalLoop=1;jettySize=auto;html=1;exitX=0.25;exitY=1;exitDx=0;exitDy=0;entryX=1;entryY=0.5;entryDx=0;entryDy=0;" edge="1" parent="1" source="GOEzXW9mrkfehJml5P1z-19" target="GOEzXW9mrkfehJml5P1z-21">
          <mxGeometry relative="1" as="geometry" />
        </mxCell>
        <mxCell id="GOEzXW9mrkfehJml5P1z-25" style="edgeStyle=orthogonalEdgeStyle;rounded=0;orthogonalLoop=1;jettySize=auto;html=1;exitX=0.75;exitY=1;exitDx=0;exitDy=0;entryX=0;entryY=0.5;entryDx=0;entryDy=0;" edge="1" parent="1" source="GOEzXW9mrkfehJml5P1z-19" target="GOEzXW9mrkfehJml5P1z-22">
          <mxGeometry relative="1" as="geometry" />
        </mxCell>
        <mxCell id="GOEzXW9mrkfehJml5P1z-19" value="Does a record with the combination of season_id and effective_start exist in tbl_ref_sla_season_date?" style="rounded=0;whiteSpace=wrap;html=1;fillColor=#dae8fc;strokeColor=#6c8ebf;" vertex="1" parent="1">
          <mxGeometry x="187.5" y="550" width="155" height="60" as="geometry" />
        </mxCell>
        <mxCell id="GOEzXW9mrkfehJml5P1z-39" style="edgeStyle=orthogonalEdgeStyle;rounded=0;orthogonalLoop=1;jettySize=auto;html=1;exitX=0.5;exitY=1;exitDx=0;exitDy=0;" edge="1" parent="1" source="GOEzXW9mrkfehJml5P1z-21" target="GOEzXW9mrkfehJml5P1z-34">
          <mxGeometry relative="1" as="geometry" />
        </mxCell>
        <mxCell id="GOEzXW9mrkfehJml5P1z-21" value="Yes" style="rounded=0;whiteSpace=wrap;html=1;fillColor=#dae8fc;strokeColor=#6c8ebf;" vertex="1" parent="1">
          <mxGeometry x="147.5" y="650" width="40" height="30" as="geometry" />
        </mxCell>
        <mxCell id="GOEzXW9mrkfehJml5P1z-42" style="edgeStyle=orthogonalEdgeStyle;rounded=0;orthogonalLoop=1;jettySize=auto;html=1;exitX=1;exitY=0.5;exitDx=0;exitDy=0;" edge="1" parent="1" source="GOEzXW9mrkfehJml5P1z-22" target="GOEzXW9mrkfehJml5P1z-17">
          <mxGeometry relative="1" as="geometry" />
        </mxCell>
        <mxCell id="GOEzXW9mrkfehJml5P1z-22" value="No" style="rounded=0;whiteSpace=wrap;html=1;fillColor=#dae8fc;strokeColor=#6c8ebf;" vertex="1" parent="1">
          <mxGeometry x="342.5" y="650" width="40" height="30" as="geometry" />
        </mxCell>
        <mxCell id="GOEzXW9mrkfehJml5P1z-32" style="edgeStyle=orthogonalEdgeStyle;rounded=0;orthogonalLoop=1;jettySize=auto;html=1;exitX=0.5;exitY=1;exitDx=0;exitDy=0;" edge="1" parent="1" source="GOEzXW9mrkfehJml5P1z-27" target="GOEzXW9mrkfehJml5P1z-31">
          <mxGeometry relative="1" as="geometry" />
        </mxCell>
        <mxCell id="GOEzXW9mrkfehJml5P1z-27" value="Yes" style="rounded=0;whiteSpace=wrap;html=1;fillColor=#dae8fc;strokeColor=#6c8ebf;" vertex="1" parent="1">
          <mxGeometry x="227.5" y="970" width="40" height="30" as="geometry" />
        </mxCell>
        <mxCell id="GOEzXW9mrkfehJml5P1z-28" value="No" style="rounded=0;whiteSpace=wrap;html=1;fillColor=#dae8fc;strokeColor=#6c8ebf;" vertex="1" parent="1">
          <mxGeometry x="67.5" y="970" width="40" height="30" as="geometry" />
        </mxCell>
        <mxCell id="GOEzXW9mrkfehJml5P1z-31" value="&lt;b&gt;Update:&lt;/b&gt;&lt;br&gt;Record into tbl_ref_sla_season_date" style="rounded=0;whiteSpace=wrap;html=1;fillColor=#d5e8d4;strokeColor=#82b366;" vertex="1" parent="1">
          <mxGeometry x="174.5" y="1040" width="146" height="60" as="geometry" />
        </mxCell>
        <mxCell id="GOEzXW9mrkfehJml5P1z-33" value="&lt;b&gt;Delete:&lt;/b&gt;&lt;br&gt;Record from tbl_ref_sla_season_date" style="rounded=0;whiteSpace=wrap;html=1;fillColor=#d5e8d4;strokeColor=#82b366;" vertex="1" parent="1">
          <mxGeometry x="352" y="730" width="146" height="60" as="geometry" />
        </mxCell>
        <mxCell id="GOEzXW9mrkfehJml5P1z-36" style="edgeStyle=orthogonalEdgeStyle;rounded=0;orthogonalLoop=1;jettySize=auto;html=1;exitX=1;exitY=0.5;exitDx=0;exitDy=0;entryX=0;entryY=0.5;entryDx=0;entryDy=0;" edge="1" parent="1" source="GOEzXW9mrkfehJml5P1z-34" target="GOEzXW9mrkfehJml5P1z-35">
          <mxGeometry relative="1" as="geometry" />
        </mxCell>
        <mxCell id="GOEzXW9mrkfehJml5P1z-41" style="edgeStyle=orthogonalEdgeStyle;rounded=0;orthogonalLoop=1;jettySize=auto;html=1;exitX=0.5;exitY=1;exitDx=0;exitDy=0;entryX=0.5;entryY=0;entryDx=0;entryDy=0;" edge="1" parent="1" source="GOEzXW9mrkfehJml5P1z-34" target="GOEzXW9mrkfehJml5P1z-38">
          <mxGeometry relative="1" as="geometry" />
        </mxCell>
        <mxCell id="GOEzXW9mrkfehJml5P1z-34" value="Does the season still have a value of effective = 1?" style="rounded=0;whiteSpace=wrap;html=1;fillColor=#dae8fc;strokeColor=#6c8ebf;" vertex="1" parent="1">
          <mxGeometry x="107.5" y="730" width="120" height="60" as="geometry" />
        </mxCell>
        <mxCell id="GOEzXW9mrkfehJml5P1z-37" style="edgeStyle=orthogonalEdgeStyle;rounded=0;orthogonalLoop=1;jettySize=auto;html=1;exitX=1;exitY=0.5;exitDx=0;exitDy=0;" edge="1" parent="1" source="GOEzXW9mrkfehJml5P1z-35" target="GOEzXW9mrkfehJml5P1z-33">
          <mxGeometry relative="1" as="geometry" />
        </mxCell>
        <mxCell id="GOEzXW9mrkfehJml5P1z-35" value="No" style="rounded=0;whiteSpace=wrap;html=1;fillColor=#dae8fc;strokeColor=#6c8ebf;" vertex="1" parent="1">
          <mxGeometry x="272" y="745" width="40" height="30" as="geometry" />
        </mxCell>
        <mxCell id="GOEzXW9mrkfehJml5P1z-43" style="edgeStyle=orthogonalEdgeStyle;rounded=0;orthogonalLoop=1;jettySize=auto;html=1;exitX=0.5;exitY=1;exitDx=0;exitDy=0;entryX=0.5;entryY=0;entryDx=0;entryDy=0;" edge="1" parent="1" source="GOEzXW9mrkfehJml5P1z-38" target="GOEzXW9mrkfehJml5P1z-16">
          <mxGeometry relative="1" as="geometry" />
        </mxCell>
        <mxCell id="GOEzXW9mrkfehJml5P1z-38" value="Yes" style="rounded=0;whiteSpace=wrap;html=1;fillColor=#dae8fc;strokeColor=#6c8ebf;" vertex="1" parent="1">
          <mxGeometry x="147.5" y="820" width="40" height="30" as="geometry" />
        </mxCell>
      </root>
    </mxGraphModel>
  </diagram>
</mxfile>
